<?xml version="1.0" standalone="no"?>
<!DOCTYPE svg PUBLIC "-//W3C//DTD SVG 20010904//EN"
 "http://www.w3.org/TR/2001/REC-SVG-20010904/DTD/svg10.dtd">
<svg version="1.0" xmlns="http://www.w3.org/2000/svg"
 width="500.000000pt" height="500.000000pt" viewBox="0 0 500.000000 500.000000"
 preserveAspectRatio="xMidYMid meet">
<metadata>
Created by potrace 1.11, written by Peter Selinger 2001-2013
</metadata>
<g transform="translate(0.000000,500.000000) scale(0.100000,-0.100000)"
fill="#000000" stroke="none">
<path d="M0 4590 l0 -410 208 -1 c114 0 522 -3 907 -5 641 -4 1368 -5 3213 -4
l672 0 0 415 0 415 -2500 0 -2500 0 0 -410z"/>
<path d="M0 3599 l0 -362 35 -33 c19 -18 35 -36 35 -40 0 -4 24 -39 54 -78 29
-39 70 -103 90 -143 19 -39 40 -74 46 -78 5 -3 10 -15 10 -26 0 -10 4 -19 10
-19 5 0 16 -16 24 -35 8 -19 19 -35 24 -35 28 0 30 57 27 585 -2 297 -4 554
-4 572 -2 44 -35 53 -207 53 l-144 0 0 -361z"/>
<path d="M586 3934 c-15 -15 -17 -37 -17 -158 1 -78 1 -148 1 -156 0 -8 2
-105 5 -215 3 -110 8 -292 10 -405 8 -294 14 -319 59 -228 25 51 45 87 56 98
3 3 16 28 30 55 41 84 172 271 276 395 74 88 218 225 290 276 22 16 64 48 93
72 29 23 62 42 73 42 11 0 27 9 36 19 20 23 166 97 277 141 44 17 88 36 97 41
10 5 29 9 42 9 14 0 28 5 31 11 5 7 -27 10 -101 10 -60 0 -364 2 -675 5 -527
5 -567 4 -583 -12z"/>
<path d="M3416 3942 c-2 -1 -58 -3 -124 -3 -136 -2 -156 -14 -74 -44 52 -19
239 -101 262 -116 8 -5 35 -21 60 -36 86 -51 215 -137 238 -157 101 -91 278
-265 323 -318 20 -24 71 -97 114 -163 43 -66 95 -145 115 -175 20 -30 41 -66
45 -80 14 -46 47 -92 58 -81 13 13 14 29 22 506 12 634 12 645 -11 662 -16 12
-98 14 -522 11 -277 -2 -505 -4 -506 -6z"/>
<path d="M4713 3938 c-4 -7 -9 -20 -10 -28 -3 -17 -15 -235 -15 -265 1 -11 0
-141 -1 -290 -2 -351 2 -594 8 -624 6 -21 9 -19 40 30 19 30 35 59 35 66 0 6
19 41 43 77 23 36 62 98 87 137 25 39 57 87 73 106 l27 36 0 383 0 384 -139 0
c-101 0 -142 -3 -148 -12z"/>
<path d="M2400 3767 c-3 -3 -45 -8 -95 -10 -96 -6 -321 -59 -435 -103 -93 -37
-298 -149 -377 -208 -109 -81 -387 -370 -402 -419 -2 -6 -13 -23 -26 -37 -27
-30 -108 -162 -130 -210 -8 -19 -19 -42 -24 -50 -5 -8 -23 -46 -41 -85 -19
-38 -39 -82 -47 -96 -7 -15 -26 -67 -43 -115 -17 -49 -35 -97 -40 -106 -22
-40 -12 -75 33 -110 61 -47 65 -55 72 -135 10 -100 -12 -154 -77 -195 l-48
-30 0 -66 c0 -83 25 -169 86 -296 8 -16 14 -33 14 -37 0 -11 58 -97 71 -104 5
-4 9 -13 9 -21 0 -24 120 -151 170 -181 25 -14 64 -42 87 -61 24 -19 76 -45
120 -60 68 -22 95 -26 208 -26 123 0 134 1 210 32 75 30 170 90 258 165 21 17
47 36 58 41 10 5 19 14 19 21 0 6 22 36 49 66 26 29 51 64 55 77 4 12 25 52
47 89 21 37 39 75 39 83 0 9 5 21 11 27 15 15 37 122 45 223 5 65 3 98 -10
139 -9 30 -16 66 -16 80 0 37 -64 162 -102 197 -18 17 -58 41 -88 54 -132 55
-328 -7 -392 -124 -52 -96 -50 -109 20 -117 81 -10 99 -17 137 -51 48 -41 64
-75 72 -147 9 -94 -19 -147 -105 -197 -58 -34 -138 -42 -197 -20 -64 25 -158
124 -199 211 -30 62 -35 83 -40 180 -7 115 -6 118 53 269 11 27 111 130 168
172 15 11 64 35 108 54 67 27 99 34 202 42 137 10 192 1 315 -53 36 -16 71
-29 76 -29 34 0 57 75 30 98 -8 5 -33 7 -58 4 -137 -19 -206 2 -287 85 -61 63
-74 94 -80 184 -5 67 -3 83 18 125 31 66 83 120 143 152 47 25 60 27 163 26
106 -1 113 0 118 20 31 117 42 143 81 182 38 38 47 42 100 46 33 2 73 -1 89
-7 40 -16 79 -63 99 -120 9 -25 23 -65 31 -89 l16 -44 37 9 c55 13 192 1 222
-18 105 -68 142 -124 160 -239 10 -64 9 -76 -11 -129 -51 -138 -181 -206 -346
-184 -74 10 -83 3 -69 -57 10 -43 12 -45 41 -41 16 3 63 19 103 36 43 18 104
34 150 40 306 36 577 -113 652 -360 23 -76 27 -209 7 -286 -27 -101 -157 -276
-215 -287 -101 -19 -119 -17 -185 13 -89 40 -118 83 -125 186 -5 88 6 122 54
165 35 30 117 60 165 60 49 0 56 24 24 83 -47 88 -72 114 -142 149 -61 30 -75
33 -149 31 -145 -3 -233 -71 -292 -228 -23 -58 -44 -234 -41 -330 2 -69 39
-187 80 -257 21 -36 39 -69 39 -73 0 -34 204 -239 300 -303 130 -86 224 -121
340 -127 174 -10 314 37 429 142 192 175 313 390 352 625 13 77 13 77 -13 101
-13 13 -29 22 -35 20 -17 -6 -59 45 -70 84 -6 21 -11 66 -12 101 -1 60 1 64
38 101 22 22 50 41 63 43 29 4 27 27 -9 143 -56 181 -169 414 -282 581 -107
159 -163 224 -342 393 -145 136 -154 143 -186 138 -31 -5 -33 -4 -27 17 5 21
-4 28 -93 74 -169 87 -293 129 -513 174 -90 19 -428 38 -440 25z"/>
<path d="M2135 2988 c-51 -28 -62 -47 -61 -102 1 -44 6 -58 26 -75 47 -39 94
-40 143 0 22 17 27 28 27 68 0 55 -20 88 -66 107 -40 17 -43 17 -69 2z"/>
<path d="M2814 2964 c-10 -14 -21 -47 -25 -72 -9 -59 7 -87 59 -103 66 -19
122 23 136 101 9 58 -38 100 -113 100 -33 0 -44 -5 -57 -26z"/>
<path d="M0 2017 c0 -433 2 -787 5 -787 3 0 15 15 27 34 13 18 48 71 80 117
76 113 124 238 142 364 7 55 12 105 9 111 -2 7 -16 15 -31 19 -83 21 -132 83
-132 169 0 75 26 126 85 163 42 26 45 31 41 63 -11 88 -47 194 -92 270 -30 51
-104 203 -104 214 0 6 -7 20 -15 30 -13 18 -15 -73 -15 -767z"/>
<path d="M4923 2554 c-65 -143 -102 -256 -103 -306 0 -11 18 -27 48 -42 58
-30 79 -59 93 -130 10 -46 9 -58 -9 -92 -22 -44 -49 -70 -104 -103 -46 -27
-55 -63 -39 -155 14 -81 92 -270 145 -354 l41 -64 3 351 c1 193 1 510 0 703
l-3 353 -72 -161z"/>
<path d="M620 1280 c-13 -7 -16 -36 -18 -160 -2 -100 1 -163 9 -185 l13 -34
140 -3 c175 -4 226 0 226 17 0 7 -12 21 -27 30 -57 37 -160 135 -198 189 -68
96 -128 156 -145 146z"/>
<path d="M4445 1280 c3 -5 8 -10 11 -10 2 0 4 5 4 10 0 6 -5 10 -11 10 -5 0
-7 -4 -4 -10z"/>
<path d="M4683 1277 c-6 -7 -8 -84 -5 -189 l5 -178 31 -4 c17 -3 88 -8 159
-11 l127 -6 0 34 c0 29 -13 47 -97 134 -54 54 -116 125 -138 157 -45 64 -68
82 -82 63z"/>
<path d="M4374 1223 c-76 -91 -170 -186 -234 -236 -90 -70 -87 -67 -70 -77 18
-11 350 -13 367 -2 8 5 13 60 16 179 4 144 2 173 -10 177 -25 10 -29 7 -69
-41z"/>
<path d="M280 1204 c-62 -82 -162 -190 -226 -242 -30 -25 -53 -50 -51 -56 2
-7 58 -10 171 -9 92 0 169 3 171 5 2 2 5 82 6 178 1 205 -4 213 -71 124z"/>
<path d="M2757 1203 c-3 -4 -5 -64 -6 -133 -1 -89 2 -130 11 -142 11 -13 41
-17 176 -21 165 -4 197 2 156 30 -10 8 -48 32 -83 55 -35 23 -106 82 -157 130
-51 49 -94 85 -97 81z"/>
<path d="M2232 1170 c-23 -17 -47 -39 -54 -50 -16 -25 -131 -120 -146 -120 -6
0 -23 -11 -38 -25 -15 -14 -32 -25 -39 -25 -7 0 -15 -9 -18 -20 -6 -22 6 -23
228 -20 148 2 147 1 139 155 -4 70 -12 119 -19 125 -8 7 -25 1 -53 -20z"/>
<path d="M368 692 l-368 -2 0 -345 0 -345 2500 0 2500 0 0 339 0 339 -287 5
c-159 2 -1115 5 -2127 6 -1011 1 -1841 2 -1845 4 -3 1 -171 1 -373 -1z"/>
</g>
</svg>
