<?xml version="1.0" standalone="no"?>
<!DOCTYPE svg PUBLIC "-//W3C//DTD SVG 20010904//EN"
 "http://www.w3.org/TR/2001/REC-SVG-20010904/DTD/svg10.dtd">
<svg version="1.0" xmlns="http://www.w3.org/2000/svg"
 width="481.000000pt" height="481.000000pt" viewBox="0 0 481.000000 481.000000"
 preserveAspectRatio="xMidYMid meet">
<metadata>
Created by potrace 1.11, written by Peter Selinger 2001-2013
</metadata>
<g transform="translate(0.000000,481.000000) scale(0.100000,-0.100000)"
fill="#000000" stroke="none">
<path d="M3105 3927 c-33 -5 -63 -12 -68 -16 -4 -4 32 -22 80 -41 471 -178
851 -526 1120 -1028 54 -101 57 -105 64 -77 12 49 30 1110 20 1138 -6 14 -19
28 -31 32 -29 9 -1112 2 -1185 -8z"/>
<path d="M465 3907 c-13 -20 -14 -56 -6 -273 6 -137 13 -393 17 -569 8 -407 9
-409 100 -235 129 247 271 437 466 625 182 176 375 305 592 397 56 24 104 48
106 53 8 17 -173 22 -732 24 l-528 1 -15 -23z"/>
<path d="M2215 3739 c-291 -27 -439 -72 -674 -203 -160 -90 -239 -156 -397
-330 -126 -139 -159 -183 -241 -321 -53 -88 -106 -173 -118 -190 -12 -16 -41
-79 -65 -140 -24 -60 -47 -112 -50 -115 -17 -13 -41 -160 -32 -193 4 -14 25
-40 47 -57 38 -30 40 -35 51 -113 9 -65 9 -85 -1 -97 -7 -8 -20 -32 -28 -53
-12 -28 -22 -37 -40 -37 -20 0 -28 -9 -41 -40 -30 -75 -22 -112 71 -325 95
-219 172 -312 363 -434 102 -66 177 -84 323 -79 155 7 219 27 342 108 225 149
427 460 412 634 -5 51 -3 59 14 63 10 3 19 8 19 12 -1 40 -43 248 -58 288 -29
75 -84 138 -151 170 -48 24 -68 28 -141 28 -96 -1 -151 -20 -213 -75 -50 -43
-89 -112 -85 -147 3 -26 7 -28 68 -38 101 -17 126 -36 171 -133 41 -88 43
-112 10 -162 -8 -14 -20 -34 -26 -45 -15 -29 -123 -84 -166 -85 -77 -1 -140
30 -207 100 -35 36 -76 92 -93 125 -27 55 -30 71 -31 170 -2 120 9 179 47 263
44 96 173 200 306 247 23 9 109 20 191 26 l149 11 103 -43 c101 -41 105 -42
130 -25 30 19 33 47 9 72 -15 14 -31 16 -116 10 l-98 -6 -67 54 c-120 96 -130
113 -133 233 l-2 79 49 68 c71 100 120 125 269 138 l114 11 20 66 c51 164 183
225 291 134 34 -28 41 -41 75 -143 l22 -65 100 3 c84 3 108 1 146 -16 111 -49
182 -161 181 -287 0 -75 -26 -134 -86 -196 -58 -60 -107 -74 -233 -66 -54 3
-97 1 -101 -4 -9 -16 8 -100 22 -106 7 -2 49 12 93 31 115 52 170 60 325 46
206 -18 305 -69 427 -222 52 -66 92 -188 92 -287 1 -119 -37 -216 -124 -321
-74 -89 -98 -102 -185 -97 -136 8 -207 64 -226 181 -23 138 45 227 185 243 93
10 97 28 30 128 -79 118 -98 128 -256 126 l-119 -2 -68 -55 c-84 -67 -92 -80
-120 -178 -17 -61 -23 -112 -25 -230 -3 -139 -2 -157 21 -224 45 -136 87 -204
191 -313 113 -117 171 -160 320 -232 105 -51 109 -52 212 -55 82 -3 126 1 194
17 131 31 163 50 258 148 211 219 280 336 314 531 17 98 10 124 -50 190 -28
32 -40 58 -54 117 -26 108 -13 145 64 186 43 23 45 26 39 59 -26 152 -168 463
-302 660 -127 188 -462 530 -518 530 -8 0 -38 22 -67 48 -39 36 -82 60 -163
94 -218 91 -336 122 -547 143 -78 8 -144 14 -147 14 -3 -1 -99 -10 -215 -20z"/>
<path d="M1971 2945 c-37 -42 -40 -81 -9 -120 72 -92 200 -46 185 68 -8 58
-40 87 -98 87 -41 0 -51 -4 -78 -35z"/>
<path d="M2702 2973 c-20 -8 -42 -59 -42 -98 0 -49 15 -74 56 -91 29 -12 39
-12 68 0 43 18 76 65 76 109 0 49 -45 87 -103 86 -23 0 -48 -3 -55 -6z"/>
<path d="M4192 1176 c-61 -68 -145 -149 -187 -181 -41 -31 -75 -60 -75 -66 0
-10 141 -16 280 -11 105 3 110 8 110 114 0 44 5 100 12 126 9 35 9 47 0 50 -8
2 -9 9 -3 21 7 12 5 25 -8 44 l-17 26 -112 -123z"/>
<path d="M499 1178 c-2 -119 -2 -205 0 -225 1 -7 10 -22 21 -33 18 -18 33 -20
190 -20 94 0 170 3 170 6 0 18 -29 51 -100 112 -44 39 -102 98 -128 134 -88
118 -106 138 -129 138 -22 0 -23 -3 -24 -112z"/>
<path d="M1991 1068 l-173 -143 163 -3 c90 -1 175 0 188 3 23 6 23 6 19 128
-2 67 -8 130 -14 140 -9 15 -32 -1 -183 -125z"/>
<path d="M2637 1203 c-4 -3 -7 -61 -7 -128 0 -162 -9 -155 194 -155 155 0 157
0 143 20 -7 11 -45 43 -83 72 -38 28 -106 84 -150 125 -86 76 -87 77 -97 66z"/>
</g>
</svg>
